MatahahX-Regular-H3.ufo
<glyph name="semicolon" format="2">
	<advance width="200"/>
	<unicode hex="003B"/>
	<outline>
		<contour>
			<point x="50" y="200" type="line"/>
			<point x="50" y="-100" type="line"/>
			<point x="150" y="-100" type="line"/>
			<point x="150" y="200" type="line"/>
		</contour>
		<contour>
			<point x="50" y="600" type="line"/>
			<point x="50" y="300" type="line"/>
			<point x="150" y="300" type="line"/>
			<point x="150" y="600" type="line"/>
		</contour>
	</outline>
</glyph>
<glyph name="K" format="2">
	<advance width="400"/>
	<unicode hex="004B"/>
	<anchor x="200" y="0" name="bottom"/>
	<outline>
		<contour>
			<point x="50" y="0" type="line"/>
			<point x="150" y="0" type="line"/>
			<point x="150" y="358" type="line"/>
			<point x="250" y="258" type="line"/>
			<point x="250" y="0" type="line"/>
			<point x="350" y="0" type="line"/>
			<point x="350" y="300" type="line"/>
			<point x="250" y="400" type="line"/>
			<point x="350" y="500" type="line"/>
			<point x="350" y="800" type="line"/>
			<point x="250" y="800" type="line"/>
			<point x="250" y="542" type="line"/>
			<point x="179" y="471" type="line"/>
			<point x="150" y="500" type="line"/>
			<point x="150" y="800" type="line"/>
			<point x="50" y="800" type="line"/>
		</contour>
	</outline>
</glyph>
<glyph name="L" format="2">
	<advance width="400"/>
	<unicode hex="004C"/>
	<anchor x="100" y="800" name="top"/>
	<anchor x="100" y="0" name="bottom"/>
	<anchor x="100" y="400" name="middle"/>
	<outline>
		<contour>
			<point x="50" y="0" type="line"/>
			<point x="350" y="0" type="line"/>
			<point x="350" y="100" type="line"/>
			<point x="150" y="100" type="line"/>
			<point x="150" y="800" type="line"/>
			<point x="50" y="800" type="line"/>
		</contour>
	</outline>
</glyph>
<glyph name="U" format="2">
	<advance width="400"/>
	<unicode hex="0055"/>
	<anchor x="300" y="0" name="ogonek"/>
	<anchor x="200" y="800" name="top"/>
	<outline>
		<contour>
			<point x="50" y="0" type="line"/>
			<point x="350" y="0" type="line"/>
			<point x="350" y="800" type="line"/>
			<point x="250" y="800" type="line"/>
			<point x="250" y="100" type="line"/>
			<point x="150" y="100" type="line"/>
			<point x="150" y="800" type="line"/>
			<point x="50" y="800" type="line"/>
		</contour>
	</outline>
</glyph>
<glyph name="X" format="2">
	<advance width="400"/>
	<unicode hex="0058"/>
	<outline>
		<contour>
			<point x="50" y="0" type="line"/>
			<point x="150" y="0" type="line"/>
			<point x="150" y="212" type="line"/>
			<point x="200" y="272" type="line"/>
			<point x="250" y="212" type="line"/>
			<point x="250" y="0" type="line"/>
			<point x="350" y="0" type="line"/>
			<point x="350" y="250" type="line"/>
			<point x="266" y="350" type="line"/>
			<point x="350" y="450" type="line"/>
			<point x="350" y="800" type="line"/>
			<point x="250" y="800" type="line"/>
			<point x="250" y="489" type="line"/>
			<point x="200" y="429" type="line"/>
			<point x="150" y="489" type="line"/>
			<point x="150" y="800" type="line"/>
			<point x="50" y="800" type="line"/>
			<point x="50" y="450" type="line"/>
			<point x="134" y="350" type="line"/>
			<point x="50" y="250" type="line"/>
		</contour>
	</outline>
</glyph>
<glyph name="i" format="2">
	<advance width="200"/>
	<unicode hex="0069"/>
	<anchor x="100" y="0" name="ogonek"/>
	<anchor x="100" y="0" name="bottom"/>
	<anchor x="100" y="800" name="top"/>
	<outline>
		<contour>
			<point x="50" y="600" type="line"/>
			<point x="50" y="0" type="line"/>
			<point x="150" y="0" type="line"/>
			<point x="150" y="600" type="line"/>
		</contour>
		<contour>
			<point x="50" y="800" type="line"/>
			<point x="50" y="700" type="line"/>
			<point x="150" y="700" type="line"/>
			<point x="150" y="800" type="line"/>
		</contour>
	</outline>
</glyph>
<glyph name="k" format="2">
	<advance width="400"/>
	<unicode hex="006B"/>
	<anchor x="200" y="0" name="bottom"/>
	<outline>
		<contour>
			<point x="50" y="900" type="line"/>
			<point x="50" y="0" type="line"/>
			<point x="150" y="0" type="line"/>
			<point x="150" y="420" type="line"/>
			<point x="250" y="300" type="line"/>
			<point x="250" y="0" type="line"/>
			<point x="350" y="0" type="line"/>
			<point x="350" y="350" type="line"/>
			<point x="256" y="455" type="line"/>
			<point x="350" y="558" type="line"/>
			<point x="350" y="800" type="line"/>
			<point x="250" y="800" type="line"/>
			<point x="250" y="600" type="line"/>
			<point x="150" y="480" type="line"/>
			<point x="150" y="900" type="line"/>
		</contour>
	</outline>
</glyph>
<glyph name="v" format="2">
	<advance width="400"/>
	<unicode hex="0076"/>
	<outline>
		<contour>
			<point x="50" y="100" type="line"/>
			<point x="150" y="0" type="line"/>
			<point x="250" y="0" type="line"/>
			<point x="350" y="100" type="line"/>
			<point x="350" y="600" type="line"/>
			<point x="250" y="600" type="line"/>
			<point x="250" y="142" type="line"/>
			<point x="200" y="91" type="line"/>
			<point x="150" y="142" type="line"/>
			<point x="150" y="600" type="line"/>
			<point x="50" y="600" type="line"/>
		</contour>
	</outline>
</glyph>
<glyph name="periodcentered" format="2">
	<advance width="200"/>
	<unicode hex="00B7"/>
	<outline>
		<contour>
			<point x="50" y="500" type="line"/>
			<point x="50" y="100" type="line"/>
			<point x="150" y="100" type="line"/>
			<point x="150" y="500" type="line"/>
		</contour>
	</outline>
</glyph>
<glyph name="Eth" format="2">
	<advance width="500"/>
	<unicode hex="00D0"/>
	<outline>
		<contour>
			<point x="150" y="450" type="line"/>
			<point x="150" y="350" type="line"/>
			<point x="300" y="350" type="line"/>
			<point x="300" y="450" type="line"/>
		</contour>
		<component base="D" xOffset="100"/>
	</outline>
</glyph>
<glyph name="Dcroat" format="2">
	<advance width="400"/>
	<unicode hex="0110"/>
	<outline>
		<contour>
			<point x="0" y="410" type="line"/>
			<point x="0" y="395" type="line"/>
			<point x="200" y="395" type="line"/>
			<point x="200" y="410" type="line"/>
		</contour>
		<component base="D"/>
	</outline>
</glyph>
<glyph name="acutecomb" format="2">
	<advance width="400"/>
	<unicode hex="0301"/>
	<anchor x="200" y="500" name="_top"/>
	<outline>
		<contour>
			<point x="60" y="541" type="line"/>
			<point x="61" y="526" type="line"/>
			<point x="340" y="550" type="line"/>
			<point x="339" y="565" type="line"/>
		</contour>
	</outline>
</glyph>
<glyph name="commaaccentcomb" format="2">
	<advance width="130"/>
	<unicode hex="0326"/>
	<anchor x="68" y="0" name="_bottom"/>
	<outline>
		<contour>
			<point x="80" y="-15" type="line"/>
			<point x="50" y="-15" type="line"/>
			<point x="50" y="-30" type="line"/>
			<point x="65" y="-30" type="line"/>
			<point x="65" y="-85" type="line"/>
			<point x="80" y="-85" type="line"/>
		</contour>
	</outline>
</glyph>
<glyph name="cedillacomb" format="2">
	<advance width="204"/>
	<unicode hex="0327"/>
	<anchor x="102" y="0" name="_bottom"/>
	<outline>
		<contour>
			<point x="20" y="-78" type="line"/>
			<point x="184" y="-78" type="line"/>
			<point x="184" y="-34" type="line"/>
			<point x="107" y="-34" type="line"/>
			<point x="107" y="-24" type="line"/>
			<point x="95" y="-24" type="line"/>
			<point x="95" y="-46" type="line"/>
			<point x="172" y="-46" type="line"/>
			<point x="172" y="-66" type="line"/>
			<point x="20" y="-66" type="line"/>
		</contour>
	</outline>
</glyph>
<glyph name="sad-ar" format="2">
	<advance width="800"/>
	<unicode hex="0635"/>
	<anchor x="600" y="700" name="top"/>
	<outline>
		<contour>
			<point x="50" y="-100" type="line"/>
			<point x="350" y="-100" type="line"/>
			<point x="350" y="100" type="line"/>
			<point x="750" y="100" type="line"/>
			<point x="750" y="700" type="line"/>
			<point x="450" y="700" type="line"/>
			<point x="450" y="200" type="line"/>
			<point x="350" y="200" type="line"/>
			<point x="350" y="700" type="line"/>
			<point x="250" y="700" type="line"/>
			<point x="250" y="0" type="line"/>
			<point x="150" y="0" type="line"/>
			<point x="150" y="700" type="line"/>
			<point x="50" y="700" type="line"/>
		</contour>
		<contour>
			<point x="550" y="200" type="line"/>
			<point x="550" y="600" type="line"/>
			<point x="650" y="600" type="line"/>
			<point x="650" y="200" type="line"/>
		</contour>
	</outline>
</glyph>
<glyph name="hamzaabove-ar" format="2">
	<advance width="224"/>
	<unicode hex="0654"/>
	<anchor x="112" y="500" name="_top"/>
	<outline>
		<contour>
			<point x="194" y="570" type="line"/>
			<point x="56" y="570" type="line"/>
			<point x="56" y="538" type="line"/>
			<point x="30" y="538" type="line"/>
			<point x="30" y="526" type="line"/>
			<point x="194" y="526" type="line"/>
			<point x="194" y="538" type="line"/>
			<point x="68" y="538" type="line"/>
			<point x="68" y="558" type="line"/>
			<point x="194" y="558" type="line"/>
		</contour>
	</outline>
</glyph>
<glyph name="one-ar" format="2">
	<advance width="200"/>
	<unicode hex="0661"/>
	<outline>
		<contour>
			<point x="50" y="100" type="line"/>
			<point x="150" y="100" type="line"/>
			<point x="150" y="900" type="line"/>
			<point x="50" y="900" type="line"/>
		</contour>
	</outline>
</glyph>
<glyph name="thousandseparator-ar" format="2">
	<advance width="200"/>
	<unicode hex="066C"/>
	<outline>
		<contour>
			<point x="50" y="500" type="line"/>
			<point x="50" y="0" type="line"/>
			<point x="150" y="0" type="line"/>
			<point x="150" y="500" type="line"/>
		</contour>
	</outline>
</glyph>
<glyph name="four-persian" format="2">
	<advance width="400"/>
	<unicode hex="06F4"/>
	<outline>
		<contour>
			<point x="50" y="100" type="line"/>
			<point x="150" y="100" type="line"/>
			<point x="150" y="500" type="line"/>
			<point x="350" y="500" type="line"/>
			<point x="350" y="600" type="line"/>
			<point x="150" y="600" type="line"/>
			<point x="150" y="800" type="line"/>
			<point x="350" y="800" type="line"/>
			<point x="350" y="900" type="line"/>
			<point x="50" y="900" type="line"/>
		</contour>
	</outline>
</glyph>
<glyph name="quotedblleft" format="2">
	<advance width="400"/>
	<unicode hex="201C"/>
	<outline>
		<contour>
			<point x="50" y="900" type="line"/>
			<point x="50" y="700" type="line"/>
			<point x="150" y="700" type="line"/>
			<point x="150" y="900" type="line"/>
		</contour>
		<contour>
			<point x="250" y="900" type="line"/>
			<point x="250" y="700" type="line"/>
			<point x="350" y="700" type="line"/>
			<point x="350" y="900" type="line"/>
		</contour>
	</outline>
</glyph>
<glyph name="veh-ar.init" format="2">
	<advance width="600"/>
	<unicode hex="FB6C"/>
	<outline>
		<contour>
			<point x="-50" y="100" type="line"/>
			<point x="550" y="100" type="line"/>
			<point x="550" y="700" type="line"/>
			<point x="50" y="700" type="line"/>
			<point x="50" y="200" type="line"/>
			<point x="-50" y="200" type="line"/>
		</contour>
		<contour>
			<point x="150" y="600" type="line"/>
			<point x="450" y="600" type="line"/>
			<point x="450" y="200" type="line"/>
			<point x="150" y="200" type="line"/>
		</contour>
		<contour>
			<point x="50" y="900" type="line"/>
			<point x="50" y="800" type="line"/>
			<point x="150" y="800" type="line"/>
			<point x="150" y="900" type="line"/>
		</contour>
		<contour>
			<point x="250" y="900" type="line"/>
			<point x="250" y="800" type="line"/>
			<point x="350" y="800" type="line"/>
			<point x="350" y="900" type="line"/>
		</contour>
		<contour>
			<point x="450" y="900" type="line"/>
			<point x="450" y="800" type="line"/>
			<point x="550" y="800" type="line"/>
			<point x="550" y="900" type="line"/>
		</contour>
	</outline>
</glyph>
<glyph name="noonghunna-ar.fina" format="2">
	<advance width="600"/>
	<unicode hex="FB9F"/>
	<anchor x="300" y="500" name="top"/>
	<outline>
		<contour>
			<point x="50" y="-100" type="line"/>
			<point x="550" y="-100" type="line"/>
			<point x="550" y="100" type="line"/>
			<point x="650" y="100" type="line"/>
			<point x="650" y="200" type="line"/>
			<point x="550" y="200" type="line"/>
			<point x="550" y="700" type="line"/>
			<point x="450" y="700" type="line"/>
			<point x="450" y="0" type="line"/>
			<point x="150" y="0" type="line"/>
			<point x="150" y="700" type="line"/>
			<point x="50" y="700" type="line"/>
		</contour>
	</outline>
</glyph>
<glyph name="kaf-ar.init" format="2">
	<advance width="400"/>
	<unicode hex="FEDB"/>
	<anchor x="200" y="900" name="top"/>
	<outline>
		<contour>
			<point x="-50" y="100" type="line"/>
			<point x="350" y="100" type="line"/>
			<point x="350" y="500" type="line"/>
			<point x="150" y="500" type="line"/>
			<point x="150" y="800" type="line"/>
			<point x="350" y="800" type="line"/>
			<point x="350" y="900" type="line"/>
			<point x="50" y="900" type="line"/>
			<point x="50" y="400" type="line"/>
			<point x="250" y="400" type="line"/>
			<point x="250" y="200" type="line"/>
			<point x="-50" y="200" type="line"/>
		</contour>
	</outline>
</glyph>
<glyph name="behDotless-ar.fina" format="2">
	<advance width="600"/>
	<anchor x="300" y="100" name="bottom"/>
	<outline>
		<contour>
			<point x="50" y="100" type="line"/>
			<point x="650" y="100" type="line"/>
			<point x="650" y="200" type="line"/>
			<point x="550" y="200" type="line"/>
			<point x="550" y="700" type="line"/>
			<point x="450" y="700" type="line"/>
			<point x="450" y="200" type="line"/>
			<point x="150" y="200" type="line"/>
			<point x="150" y="700" type="line"/>
			<point x="50" y="700" type="line"/>
		</contour>
	</outline>
</glyph>
<glyph name="fehDotless-ar.init" format="2">
	<advance width="400"/>
	<anchor x="200" y="700" name="top"/>
	<outline>
		<contour>
			<point x="-50" y="100" type="line"/>
			<point x="350" y="100" type="line"/>
			<point x="350" y="700" type="line"/>
			<point x="50" y="700" type="line"/>
			<point x="50" y="200" type="line"/>
			<point x="-50" y="200" type="line"/>
		</contour>
		<contour>
			<point x="150" y="200" type="line"/>
			<point x="150" y="600" type="line"/>
			<point x="250" y="600" type="line"/>
			<point x="250" y="200" type="line"/>
		</contour>
	</outline>
</glyph>
<glyph name="hamzabelowKasra-ar" format="2">
	<advance width="224"/>
	<anchor x="112" y="100" name="_bottom"/>
	<outline>
		<contour>
			<point x="191" y="64" type="line"/>
			<point x="122" y="52" type="line"/>
			<point x="125" y="40" type="line"/>
			<point x="194" y="52" type="line"/>
		</contour>
		<contour>
			<point x="100" y="38" type="line"/>
			<point x="58" y="38" type="line"/>
			<point x="58" y="58" type="line"/>
			<point x="100" y="58" type="line"/>
			<point x="100" y="70" type="line"/>
			<point x="46" y="70" type="line"/>
			<point x="46" y="38" type="line"/>
			<point x="30" y="38" type="line"/>
			<point x="30" y="26" type="line"/>
			<point x="100" y="26" type="line"/>
		</contour>
	</outline>
</glyph>
<glyph name="shaddaFathatan-ar" format="2">
	<advance width="224"/>
	<anchor x="112" y="500" name="_top"/>
	<outline>
		<contour>
			<point x="71" y="570" type="line"/>
			<point x="59" y="570" type="line"/>
			<point x="59" y="538" type="line"/>
			<point x="42" y="538" type="line"/>
			<point x="42" y="570" type="line"/>
			<point x="30" y="570" type="line"/>
			<point x="30" y="526" type="line"/>
			<point x="100" y="526" type="line"/>
			<point x="100" y="570" type="line"/>
			<point x="88" y="570" type="line"/>
			<point x="88" y="538" type="line"/>
			<point x="71" y="538" type="line"/>
		</contour>
		<contour>
			<point x="192" y="581" type="line"/>
			<point x="123" y="569" type="line"/>
			<point x="126" y="557" type="line"/>
			<point x="195" y="569" type="line"/>
		</contour>
		<contour>
			<point x="195" y="537" type="line"/>
			<point x="192" y="549" type="line"/>
			<point x="123" y="537" type="line"/>
			<point x="126" y="525" type="line"/>
		</contour>
	</outline>
</glyph>
